<?xml version="1.0" encoding="UTF-8"?>
<svg width="19px" height="23px" viewBox="0 0 19 23" version="1.1" xmlns="http://www.w3.org/2000/svg" xmlns:xlink="http://www.w3.org/1999/xlink">
    <!-- Generator: Sketch 42 (36781) - http://www.bohemiancoding.com/sketch -->
    <title>删除-hover</title>
    <desc>Created with Sketch.</desc>
    <defs></defs>
    <g id="新版本" stroke="none" stroke-width="1" fill="none" fill-rule="evenodd">
        <g id="评估模版列表-焦点(鼠标滑动到按钮上颜色改变)-copy" transform="translate(-621.000000, -305.000000)" fill="#379AFF">
            <g id="Group-11" transform="translate(524.000000, 156.000000)">
                <path d="M98.4611961,169.63852 C98.4611961,170.398168 99.1155173,171.013759 99.9223921,171.013759 L113.076799,171.013759 C113.886911,171.013759 114.540827,170.39855 114.540827,169.63852 L114.540827,155.484143 L98.4611961,155.484143 L98.4611961,169.63852 L98.4611961,169.63852 Z M110.059718,156.847918 L112.325766,156.847918 L112.325766,168.294232 C112.325766,168.884985 111.817524,169.362631 111.194765,169.362631 C110.56796,169.362631 110.060123,168.884985 110.060123,168.294232 L110.060123,156.847918 L110.059718,156.847918 Z M105.36819,156.847918 L107.635856,156.847918 L107.635856,168.294232 C107.635856,168.884985 107.128424,169.362631 106.502023,169.362631 C105.875623,169.362631 105.36819,168.884985 105.36819,168.294232 L105.36819,156.847918 L105.36819,156.847918 Z M100.643076,156.847918 L102.907505,156.847918 L102.907505,168.294232 C102.907505,168.884985 102.399668,169.362631 101.775291,169.362631 C101.150914,169.362631 100.643481,168.884985 100.643481,168.294232 L100.643481,156.847918 L100.643076,156.847918 Z M114.53759,150.471532 C115.344869,150.471532 115.999595,151.087887 116,151.847536 L116,154.109286 L97,154.109286 L97,151.847536 C97,151.087887 97.6551306,150.471532 98.4616007,150.471532 L104.203604,150.471532 L104.203604,149.687428 C104.203604,149.687428 104.178515,149 104.908506,149 L108.042531,149 C108.773331,149 108.799229,149.687428 108.799229,149.687428 L108.799229,150.471532 L114.53759,150.471532 Z" id="删除-hover"></path>
            </g>
        </g>
    </g>
</svg>