<?xml version="1.0" encoding="UTF-8"?>
<svg width="21px" height="17px" viewBox="0 0 21 17" version="1.1" xmlns="http://www.w3.org/2000/svg" xmlns:xlink="http://www.w3.org/1999/xlink">
    <defs></defs>
    <g id="Page-1" stroke="none" stroke-width="1" fill="none" fill-rule="evenodd">
        <g id="评估套件-编辑复制删除鼠标滑动" transform="translate(-520.000000, -229.000000)" fill="#304F68">
            <path d="M538.765221,229.126195 L520.749755,236.099321 C519.737908,236.491055 519.752083,237.092493 520.781031,237.4363 L525.313079,238.949683 L527.073517,244.442727 C527.284122,245.135742 527.874759,245.283795 528.386196,244.771459 L530.800048,242.353332 C530.810398,242.342982 530.819848,242.332856 530.829749,242.322731 L535.250419,245.665179 C536.116238,246.319943 537.003208,245.984461 537.221462,244.919962 L540.208177,230.349546 C540.426432,229.285048 539.777068,228.734686 538.765221,229.126195 L538.765221,229.126195 Z M535.838582,233.024404 L528.342095,240.055357 L528.34187,240.055582 L528.341195,240.056257 C528.209567,240.180235 528.101114,240.418515 528.085589,240.598744 L528.085589,240.598744 L527.88601,242.907519 C527.785208,244.056169 527.604529,243.656335 527.383799,242.96647 L525.949393,238.548724 L535.345597,232.530519 C536.798903,231.624874 536.798903,232.14621 535.838582,233.024404 L535.838582,233.024404 Z" id="发布"></path>
        </g>
    </g>
</svg>