<?xml version="1.0" encoding="UTF-8"?>
<svg width="21px" height="17px" viewBox="0 0 21 17" version="1.1" xmlns="http://www.w3.org/2000/svg" xmlns:xlink="http://www.w3.org/1999/xlink">
    <!-- Generator: Sketch 42 (36781) - http://www.bohemiancoding.com/sketch -->
    <title>发布-hover</title>
    <desc>Created with Sketch.</desc>
    <defs></defs>
    <g id="新版本" stroke="none" stroke-width="1" fill="none" fill-rule="evenodd">
        <g id="评估模版列表-焦点(鼠标滑动到按钮上颜色改变)-copy" transform="translate(-660.000000, -308.000000)" fill="#379AFF">
            <g id="Group-11" transform="translate(524.000000, 156.000000)">
                <path d="M154.765221,152.126274 L136.749755,159.103761 C135.737908,159.495739 135.752083,160.097554 136.781031,160.441576 L141.313079,161.955905 L143.073517,167.452385 C143.284122,168.145833 143.874759,168.293979 144.386196,167.781323 L146.800048,165.361683 C146.810398,165.351326 146.819848,165.341195 146.829749,165.331063 L151.250419,168.675601 C152.116238,169.330775 153.003208,168.995083 153.221462,167.929919 L156.208177,153.35039 C156.426432,152.285227 155.777068,151.73452 154.765221,152.126274 L154.765221,152.126274 Z M151.838582,156.026921 L144.342095,163.062271 L144.34187,163.062496 L144.341195,163.063171 C144.209567,163.187227 144.101114,163.425656 144.085589,163.605997 L144.085589,163.605997 L143.88601,165.916216 C143.785208,167.065585 143.604529,166.665501 143.383799,165.975205 L141.949393,161.554696 L151.345597,155.532727 C152.798903,154.626516 152.798903,155.148178 151.838582,156.026921 L151.838582,156.026921 Z" id="发布-hover"></path>
            </g>
        </g>
    </g>
</svg>