<?xml version="1.0" encoding="UTF-8"?>
<svg width="20px" height="23px" viewBox="0 0 20 23" version="1.1" xmlns="http://www.w3.org/2000/svg" xmlns:xlink="http://www.w3.org/1999/xlink">
    <!-- Generator: Sketch 42 (36781) - http://www.bohemiancoding.com/sketch -->
    <title>升级icon</title>
    <desc>Created with Sketch.</desc>
    <defs>
        <circle id="path-1" cx="14" cy="17" r="5"></circle>
        <mask id="mask-3" maskContentUnits="userSpaceOnUse" maskUnits="objectBoundingBox" x="-1" y="-1" width="12" height="12">
            <rect x="8" y="11" width="12" height="12" fill="white"></rect>
            <use xlink:href="#path-1" fill="black"></use>
        </mask>
    </defs>
    <g id="1920" stroke="none" stroke-width="1" fill="none" fill-rule="evenodd">
        <g id="评估模版列表-焦点" transform="translate(-700.000000, -305.000000)">
            <g id="Group-11" transform="translate(524.000000, 156.000000)">
                <g id="升级icon" transform="translate(176.000000, 149.000000)">
                    <path d="M13,16 L2,16 L2,2 L13,2 L13,16 Z M13,0 L2,0 C0.896,0 0,0.896 0,2 L0,16 C0,17.104 0.896,18 2,18 L13,18 C14.104,18 15,17.104 15,16 L15,2 C15,0.896 14.104,0 13,0 L13,0 Z" id="复制" fill="#304F68"></path>
                    <mask id="mask-2" fill="white">
                        <use xlink:href="#path-1"></use>
                    </mask>
                    <g id="Mask">
                        <use fill="#304F68" fill-rule="evenodd" xlink:href="#path-1"></use>
                        <use stroke="#EEF0F2" mask="url(#mask-3)" stroke-width="2" xlink:href="#path-1"></use>
                    </g>
                    <polyline id="Path-3" stroke="#EEF0F2" stroke-linecap="round" stroke-linejoin="round" mask="url(#mask-2)" points="11.5 16.3833211 14 14.2999878 16.5 16.3833211"></polyline>
                    <path d="M14,15.2999878 L14,19.2999878" id="Line" stroke="#EEF0F2" stroke-linecap="round" stroke-linejoin="round" mask="url(#mask-2)"></path>
                    <path d="M5.07142857,4.65 L5.27142857,4.65" id="Line" stroke="#304F68" stroke-width="1.3" stroke-linecap="round"></path>
                    <path d="M5.07142857,7.15 L5.27142857,7.15" id="Line-Copy" stroke="#304F68" stroke-width="1.3" stroke-linecap="round"></path>
                    <path d="M5.07142857,9.65 L5.27142857,9.65" id="Line-Copy-2" stroke="#304F68" stroke-width="1.3" stroke-linecap="round"></path>
                    <path d="M7.35714286,4.65 L11.6428571,4.65" id="Line" stroke="#304F68" stroke-width="1.3" stroke-linecap="round"></path>
                    <path d="M7.35714286,7.15 L11.6428571,7.15" id="Line-Copy" stroke="#304F68" stroke-width="1.3" stroke-linecap="round"></path>
                    <path d="M7.35714286,9.65 L11.6428571,9.65" id="Line-Copy-2" stroke="#304F68" stroke-width="1.3" stroke-linecap="round"></path>
                </g>
            </g>
        </g>
    </g>
</svg>