<?xml version="1.0" encoding="UTF-8"?>
<svg width="10px" height="13px" viewBox="0 0 10 13" version="1.1" xmlns="http://www.w3.org/2000/svg" xmlns:xlink="http://www.w3.org/1999/xlink">
    <defs>
        <path d="M151.268077,102.687194 L152.382182,102.687194 C152.925871,102.687194 153.156233,102.293982 152.887634,101.808931 L148.973555,94.7406688 C148.431105,93.7610819 147.564776,93.7701458 147.027345,94.7406688 L143.113266,101.808931 C142.844228,102.294775 143.070965,102.687194 143.618717,102.687194 L144.858901,102.687194 L144.795593,105.994014 C144.784912,106.551944 145.227423,107 145.78387,107 L150.217029,107 C150.781352,107 151.229109,106.549605 151.234715,105.994014 L151.268077,102.687194 Z" id="path-1"></path>
        <mask id="mask-2" maskContentUnits="userSpaceOnUse" maskUnits="objectBoundingBox" x="0" y="0" width="10" height="13" fill="white">
            <use xlink:href="#path-1"></use>
        </mask>
    </defs>
    <g id="Page-3" stroke="none" stroke-width="1" fill="none" fill-rule="evenodd">
        <g id="设置界面" transform="translate(-1259.000000, -293.000000)" stroke="#979797" stroke-width="2">
            <g id="Group-4" transform="translate(1116.000000, 199.000000)">
                <use id="下移箭头" mask="url(#mask-2)" transform="translate(148.000000, 100.500000) rotate(-180.000000) translate(-148.000000, -100.500000) " xlink:href="#path-1"></use>
            </g>
        </g>
    </g>
</svg>