<?xml version="1.0" encoding="UTF-8"?>
<svg width="16px" height="14px" viewBox="0 0 16 14" version="1.1" xmlns="http://www.w3.org/2000/svg" xmlns:xlink="http://www.w3.org/1999/xlink">
    <!-- Generator: Sketch 42 (36781) - http://www.bohemiancoding.com/sketch -->
    <title>退出icon</title>
    <desc>Created with Sketch.</desc>
    <defs></defs>
    <g id="1920" stroke="none" stroke-width="1" fill="none" fill-rule="evenodd">
        <g id="电脑端预览" transform="translate(-1780.000000, -17.000000)">
            <g id="退出icon" transform="translate(1780.000000, 17.000000)">
                <path d="M8.00082293,12.0258739 C3.58254493,12.0258739 -0.0628997014,7.9784523 0.000822925528,6.95988502 C0.0645455524,5.94131775 3.58234715,2 8.00062515,2 C12.4189031,2 16.0465368,5.93633011 16.0008229,6.95988502 C15.955109,7.98343993 12.4191009,12.0258739 8.00082293,12.0258739 Z M8.00082293,9.95988502 C9.65767717,9.95988502 11.0008229,8.61673927 11.0008229,6.95988502 C11.0008229,5.30303077 9.65767717,3.95988502 8.00082293,3.95988502 C6.34396868,3.95988502 5.00082293,5.30303077 5.00082293,6.95988502 C5.00082293,8.61673927 6.34396868,9.95988502 8.00082293,9.95988502 Z M8.00082293,8.45988502 C7.1723958,8.45988502 6.50082293,7.78831215 6.50082293,6.95988502 C6.50082293,6.1314579 7.1723958,5.45988502 8.00082293,5.45988502 C8.82925005,5.45988502 9.50082293,6.1314579 9.50082293,6.95988502 C9.50082293,7.78831215 8.82925005,8.45988502 8.00082293,8.45988502 Z" id="Combined-Shape" fill-opacity="0.9" fill="#FFFFFF"></path>
                <path d="M1.5,0.5 L14.5384048,13.5384048" id="Line" stroke="#EAEDF0" stroke-linecap="square"></path>
            </g>
        </g>
    </g>
</svg>