<?xml version="1.0" encoding="UTF-8"?>
<svg width="16px" height="14px" viewBox="0 0 16 14" version="1.1" xmlns="http://www.w3.org/2000/svg" xmlns:xlink="http://www.w3.org/1999/xlink">
    <defs></defs>
    <g id="Page-1" stroke="none" stroke-width="1" fill="none" fill-rule="evenodd" fill-opacity="0.9">
        <g id="默认样式" transform="translate(-1200.000000, -13.000000)" fill="#FFFFFF">
            <path d="M1214.81433,13.0996254 L1200.5919,18.6046056 C1199.79309,18.9138622 1199.80428,19.3886714 1200.61659,19.6600925 L1204.19444,20.8548425 L1205.58423,25.1913622 C1205.7505,25.7384675 1206.21678,25.855349 1206.62054,25.4508819 L1208.52617,23.5418754 C1208.53434,23.5337043 1208.5418,23.5257109 1208.54962,23.5177175 L1212.03954,26.1564346 C1212.72307,26.6733425 1213.42329,26.4084938 1213.5956,25.5681188 L1215.95348,14.0654083 C1216.12578,13.2250333 1215.61314,12.7905464 1214.81433,13.0996254 L1214.81433,13.0996254 Z M1212.50387,16.1770925 L1206.58572,21.727724 L1206.58554,21.7279017 L1206.58501,21.7284346 C1206.4811,21.8263096 1206.39548,22.0144214 1206.38322,22.1567043 L1206.38322,22.1567043 L1206.22566,23.9793819 C1206.14608,24.8861912 1206.00344,24.5705398 1205.82919,24.0259214 L1204.69679,20.538303 L1212.11468,15.7871912 C1213.262,15.072224 1213.262,15.4837964 1212.50387,16.1770925 L1212.50387,16.1770925 Z" id="发布默认"></path>
        </g>
    </g>
</svg>