<?xml version="1.0" encoding="UTF-8"?>
<svg width="17px" height="16px" viewBox="0 0 17 16" version="1.1" xmlns="http://www.w3.org/2000/svg" xmlns:xlink="http://www.w3.org/1999/xlink">
    <defs></defs>
    <g id="1920" stroke="none" stroke-width="1" fill="none" fill-rule="evenodd">
        <g id="默认样式" transform="translate(-1396.000000, -447.000000)">
            <g id="多文本_hover" transform="translate(1397.000000, 447.000000)">
                <path d="M12.0926916,7.51579521 L12.0926916,7.57407407 L12.0926916,14.3148148 L12.0926916,15.1574074 L13.6613191,15.1574074 L13.6613191,14.3148148 L13.6613191,7.57407407 L13.6613191,7.51579521 L14.5621905,7.51579521 L15.4047831,7.51579521 L15.4047831,5.94716776 L14.5621905,5.94716776 L11.1918202,5.94716776 L10.3492276,5.94716776 L10.3492276,7.51579521 L11.1918202,7.51579521 L12.0926916,7.51579521 Z" id="Combined-Shape" fill="#91C7FF"></path>
                <path d="M4.47565749,2.58863289 L4.47565749,2.75042792 L4.47565749,13.2438747 L4.47565749,14.5555556 L6.77376069,14.5555556 L6.77376069,13.2438747 L6.77376069,2.75042792 L6.77376069,2.58863289 L8.24490755,2.58863289 L12.0933654,2.61439801 L12.0933654,0.316294809 L8.24490755,0.290529685 L2.99818416,0.290529685 L-0.799247771,0.276552773 L-0.799247771,2.57465597 L2.99818416,2.58863289 L4.47565749,2.58863289 Z" id="Combined-Shape" fill="#379AFF"></path>
            </g>
        </g>
    </g>
</svg>