<?xml version="1.0" encoding="UTF-8"?>
<svg width="16px" height="10px" viewBox="0 0 16 10" version="1.1" xmlns="http://www.w3.org/2000/svg" xmlns:xlink="http://www.w3.org/1999/xlink">
    <defs></defs>
    <g id="Page-1" stroke="none" stroke-width="1" fill="none" fill-rule="evenodd" fill-opacity="0.9">
        <g id="默认样式" transform="translate(-1116.000000, -15.000000)" fill="#FFFFFF">
            <g id="预览" transform="translate(1108.000000, 6.000000)">
                <path d="M16.0008229,19.0258739 C20.4191009,19.0258739 23.955109,14.9834399 24.0008229,13.959885 C24.0465368,12.9363301 20.4189031,9 16.0006251,9 C11.5823471,9 8.06454555,12.9413177 8.00082293,13.959885 C7.9371003,14.9784523 11.5825449,19.0258739 16.0008229,19.0258739 Z M16.0008229,16.959885 C17.6576772,16.959885 19.0008229,15.6167393 19.0008229,13.959885 C19.0008229,12.3030308 17.6576772,10.959885 16.0008229,10.959885 C14.3439687,10.959885 13.0008229,12.3030308 13.0008229,13.959885 C13.0008229,15.6167393 14.3439687,16.959885 16.0008229,16.959885 Z M16.0008229,15.459885 C16.8292501,15.459885 17.5008229,14.7883121 17.5008229,13.959885 C17.5008229,13.1314579 16.8292501,12.459885 16.0008229,12.459885 C15.1723958,12.459885 14.5008229,13.1314579 14.5008229,13.959885 C14.5008229,14.7883121 15.1723958,15.459885 16.0008229,15.459885 Z" id="预览默认"></path>
            </g>
        </g>
    </g>
</svg>