<?xml version="1.0" encoding="UTF-8"?>
<svg width="11px" height="13px" viewBox="0 0 11 13" version="1.1" xmlns="http://www.w3.org/2000/svg" xmlns:xlink="http://www.w3.org/1999/xlink">
    <defs></defs>
    <g id="Page-3" stroke="none" stroke-width="1" fill="none" fill-rule="evenodd">
        <g id="设置界面" transform="translate(-1285.000000, -293.000000)" fill="#8E8E93">
            <g id="Group-4" transform="translate(1116.000000, 199.000000)">
                <path d="M178.842105,105.818182 L172.473684,105.818182 L172.473684,97.5454545 L178.842105,97.5454545 L178.842105,105.818182 Z M178.842105,96.3636364 L172.473684,96.3636364 C171.834526,96.3636364 171.315789,96.8930909 171.315789,97.5454545 L171.315789,105.818182 C171.315789,106.470545 171.834526,107 172.473684,107 L178.842105,107 C179.481263,107 180,106.470545 180,105.818182 L180,97.5454545 C180,96.8930909 179.481263,96.3636364 178.842105,96.3636364 L178.842105,96.3636364 Z M177.105263,94 L170.157895,94 C169.518737,94 169,94.5294545 169,95.1818182 L169,103.454545 L170.157895,103.454545 L170.157895,95.1818182 L177.105263,95.1818182 L177.105263,94 Z" id="复制"></path>
            </g>
        </g>
    </g>
</svg>