<?xml version="1.0" encoding="UTF-8"?>
<svg width="17px" height="15px" viewBox="0 0 17 15" version="1.1" xmlns="http://www.w3.org/2000/svg" xmlns:xlink="http://www.w3.org/1999/xlink">
    <!-- Generator: Sketch 41.2 (35397) - http://www.bohemiancoding.com/sketch -->
    <title>分割线hover</title>
    <desc>Created with Sketch.</desc>
    <defs></defs>
    <g id="Page-3" stroke="none" stroke-width="1" fill="none" fill-rule="evenodd">
        <g id="默认样式(图标全选中)" transform="translate(-1395.000000, -373.000000)">
            <g id="分割线hover" transform="translate(1395.000000, 373.000000)">
                <path d="M1,12.2050171 L16.3346535,12.2050171 L16.9746535,12.2050171 L16.9746535,10.9250171 L16.3346535,10.9250171 L1,10.9250171 L0.36,10.9250171 L0.36,12.2050171 L1,12.2050171 Z M1,14.4907314 L4.83366337,14.4907314 L5.47366337,14.4907314 L5.47366337,13.2107314 L4.83366337,13.2107314 L1,13.2107314 L0.36,13.2107314 L0.36,14.4907314 L1,14.4907314 Z M8.66732673,14.4907314 L16.3346535,14.4907314 L16.9746535,14.4907314 L16.9746535,13.2107314 L16.3346535,13.2107314 L8.66732673,13.2107314 L8.02732673,13.2107314 L8.02732673,14.4907314 L8.66732673,14.4907314 Z" id="Combined-Shape" fill="#91C7FF"></path>
                <path d="M8.82297391,1.50077617 L8.82297391,1.50159738 L8.82297391,7.47167726 L8.82297391,8.21793725 L7.33210483,8.21793725 L7.33210483,7.47167726 L7.33210483,1.50159738 L7.33210483,1.50077617 L6.58500334,1.50077617 L4.42451476,1.4917088 L4.42451476,0.000839716727 L6.58500334,0.00990708425 L9.57004329,0.00990708425 L11.7595623,0.0266219241 L11.7595623,1.51749101 L9.57004329,1.50077617 L8.82297391,1.50077617 Z" id="Combined-Shape" fill="#379AFF"></path>
            </g>
        </g>
    </g>
</svg>