<?xml version="1.0" encoding="UTF-8"?>
<svg width="14px" height="15px" viewBox="0 0 14 15" version="1.1" xmlns="http://www.w3.org/2000/svg" xmlns:xlink="http://www.w3.org/1999/xlink">
    <defs></defs>
    <g id="Page-1" stroke="none" stroke-width="1" fill="none" fill-rule="evenodd">
        <g id="默认样式" transform="translate(-1031.000000, -13.000000)">
            <g id="设置" transform="translate(1024.000000, 6.000000)">
                <g id="设置默认" transform="translate(6.000000, 6.500000)">
                    <rect id="cont" fill="#EAEDF0" opacity="0" x="0" y="0" width="16" height="16"></rect>
                    <path d="M9.62460313,2.79148583 L9.5263883,1.80933753 C9.48681576,1.41361211 9.12588375,1.09090909 8.72045898,1.09090909 L7.27954102,1.09090909 C6.87916426,1.09090909 6.51328941,1.41256046 6.4736117,1.80933753 L6.37539687,2.79148583 C5.59479951,3.03470574 4.88945522,3.4485707 4.30301436,3.98943039 L3.40191923,3.58277088 C3.03942469,3.419179 2.57948968,3.57040378 2.3767773,3.92151192 L1.65631831,5.16938349 C1.45612994,5.51611993 1.55175077,5.99380253 1.87553094,6.22655297 L2.67723826,6.80286291 C2.59096995,7.18810292 2.54545455,7.58873611 2.54545455,8 C2.54545455,8.41125795 2.59096863,8.81188552 2.67723452,9.19712042 L1.87552304,9.77343335 C1.55260104,10.0055669 1.45359803,10.4794947 1.65631042,10.8306028 L2.3767694,12.0784744 C2.57695778,12.4252108 3.03845346,12.5812421 3.40191134,12.4172154 L4.30300181,12.010558 C4.88944107,12.5514196 5.59478411,12.9652868 6.37538057,13.2085091 L6.47359591,14.1906625 C6.51316845,14.5863879 6.87410046,14.9090909 7.27952522,14.9090909 L8.72044319,14.9090909 C9.12081994,14.9090909 9.48669479,14.5874395 9.5263725,14.1906625 L9.62458682,13.2085193 C10.4051884,12.9653007 11.1105365,12.5514355 11.6969804,12.0105744 L12.598065,12.4172291 C12.9605595,12.580821 13.4204945,12.4295962 13.6232069,12.0784881 L14.3436659,10.8306165 C14.5438543,10.4838801 14.4482334,10.0061975 14.1244533,9.77344703 L13.3227596,9.19714687 C13.4090293,8.81190386 13.4545455,8.41126737 13.4545455,8 C13.4545455,7.58873857 13.4090306,7.1881077 13.3227633,6.8028698 L14.1244612,6.22656665 C14.4473832,5.99443311 14.5463862,5.52050531 14.3436738,5.16939717 L13.6232148,3.9215256 C13.4230264,3.57478916 12.9615307,3.41875793 12.5980729,3.58278456 L11.696993,3.98943718 C11.1105507,3.44857417 10.4052038,3.03470676 9.62460313,2.79148583 Z" id="Rectangle-15" stroke="#EAEDF0"></path>
                    <circle id="Oval-2" stroke="#EAEDF0" cx="8" cy="8" r="2.54545455"></circle>
                </g>
            </g>
        </g>
    </g>
</svg>