<?xml version="1.0" encoding="UTF-8"?>
<svg width="16px" height="15px" viewBox="0 0 16 15" version="1.1" xmlns="http://www.w3.org/2000/svg" xmlns:xlink="http://www.w3.org/1999/xlink">
    <!-- Generator: Sketch 41.2 (35397) - http://www.bohemiancoding.com/sketch -->
    <title>注释文本</title>
    <desc>Created with Sketch.</desc>
    <defs></defs>
    <g id="Page-3" stroke="none" stroke-width="1" fill="none" fill-rule="evenodd">
        <g id="默认样式1" transform="translate(-1396.000000, -229.000000)" fill="#304A68">
            <g id="注释文本" transform="translate(1396.000000, 229.000000)">
                <path d="M0.888888889,1.25 L15.1111111,1.25 L16,1.25 L16,0 L15.1111111,0 L0.888888889,0 L0,0 L0,1.25 M1.78740711,10.4166667 L6.8279775,10.4166667 L7.38461538,10.4166667 L7.38461538,9.16666667 L6.8279775,9.16666667 L1.78740711,9.16666667 L1.23076923,9.16666667 L1.23076923,10.4166667 M1.78740711,5.83333333 L6.8279775,5.83333333 L7.38461538,5.83333333 L7.38461538,4.58333333 L6.8279775,4.58333333 L1.78740711,4.58333333 L1.23076923,4.58333333 L1.23076923,5.83333333 M12.7179487,7.69711538 L12.7179487,7.70833333 L12.7179487,13.5416667 L12.7179487,14.2708333 L11.2820513,14.2708333 L11.2820513,13.5416667 L11.2820513,7.70833333 L11.2820513,7.69711538 L10.5416667,7.69711538 L9.8125,7.69711538 L9.8125,6.26121795 L10.5416667,6.26121795 L13.4583333,6.26121795 L14.1875,6.26121795 L14.1875,7.69711538 L13.4583333,7.69711538 L12.7179487,7.69711538 Z M0.779293033,15 L7.83609158,15 L8.61538462,15 L8.61538462,13.75 L7.83609158,13.75 L0.779293033,13.75 L0,13.75 L0,15 L0.779293033,15 Z" id="Combined-Shape"></path>
            </g>
        </g>
    </g>
</svg>