<?xml version="1.0" encoding="UTF-8"?>
<svg width="19px" height="22px" viewBox="0 0 19 22" version="1.1" xmlns="http://www.w3.org/2000/svg" xmlns:xlink="http://www.w3.org/1999/xlink">
    <defs></defs>
    <g id="Page-1" stroke="none" stroke-width="1" fill="none" fill-rule="evenodd">
        <g id="评估套件-编辑复制删除鼠标滑动" transform="translate(-442.000000, -227.000000)" fill="#304F68">
            <path d="M459,247 L448,247 L448,233 L459,233 L459,247 Z M459,231 L448,231 C446.896,231 446,231.896 446,233 L446,247 C446,248.104 446.896,249 448,249 L459,249 C460.104,249 461,248.104 461,247 L461,233 C461,231.896 460.104,231 459,231 L459,231 Z M456,227 L444,227 C442.896,227 442,227.896 442,229 L442,243 L444,243 L444,229 L456,229 L456,227 Z" id="ic_3"></path>
        </g>
    </g>
</svg>