<?xml version="1.0" encoding="UTF-8"?>
<svg width="19px" height="22px" viewBox="0 0 19 22" version="1.1" xmlns="http://www.w3.org/2000/svg" xmlns:xlink="http://www.w3.org/1999/xlink">
    <defs></defs>
    <g id="Page-1" stroke="none" stroke-width="1" fill="none" fill-rule="evenodd">
        <g id="评估套件-编辑复制删除鼠标滑动" transform="translate(-481.000000, -227.000000)" fill="#304F68">
            <path d="M482.461196,247.625621 C482.461196,248.384794 483.115517,249 483.922392,249 L497.076799,249 C497.886911,249 498.540827,248.385176 498.540827,247.625621 L498.540827,233.48009 L482.461196,233.48009 L482.461196,247.625621 L482.461196,247.625621 Z M494.059718,234.843013 L496.325766,234.843013 L496.325766,246.282173 C496.325766,246.872557 495.817524,247.349905 495.194765,247.349905 C494.56796,247.349905 494.060123,246.872557 494.060123,246.282173 L494.060123,234.843013 L494.059718,234.843013 Z M489.36819,234.843013 L491.635856,234.843013 L491.635856,246.282173 C491.635856,246.872557 491.128424,247.349905 490.502023,247.349905 C489.875623,247.349905 489.36819,246.872557 489.36819,246.282173 L489.36819,234.843013 L489.36819,234.843013 Z M484.643076,234.843013 L486.907505,234.843013 L486.907505,246.282173 C486.907505,246.872557 486.399668,247.349905 485.775291,247.349905 C485.150914,247.349905 484.643481,246.872557 484.643481,246.282173 L484.643481,234.843013 L484.643076,234.843013 Z M498.53759,228.470613 L492.799229,228.470613 L492.799229,227.686999 C492.799229,227.686999 492.773331,227 492.042531,227 L488.908506,227 C488.178515,227 488.203604,227.686999 488.203604,227.686999 L488.203604,228.470613 L482.461601,228.470613 C481.655131,228.470613 481,229.086582 481,229.845756 L481,232.106093 L500,232.106093 L500,229.845756 C499.999595,229.086582 499.344869,228.470613 498.53759,228.470613 Z" id="删除"></path>
        </g>
    </g>
</svg>