<?xml version="1.0" encoding="UTF-8"?>
<svg width="14px" height="13px" viewBox="0 0 14 13" version="1.1" xmlns="http://www.w3.org/2000/svg" xmlns:xlink="http://www.w3.org/1999/xlink">
    <defs>
        <rect id="path-1" x="0" y="0" width="4" height="4"></rect>
        <mask id="mask-2" maskContentUnits="userSpaceOnUse" maskUnits="objectBoundingBox" x="0" y="0" width="4" height="4" fill="white">
            <use xlink:href="#path-1"></use>
        </mask>
        <rect id="path-3" x="0" y="9" width="4" height="4"></rect>
        <mask id="mask-4" maskContentUnits="userSpaceOnUse" maskUnits="objectBoundingBox" x="0" y="0" width="4" height="4" fill="white">
            <use xlink:href="#path-3"></use>
        </mask>
        <rect id="path-5" x="9" y="4.5" width="4" height="4"></rect>
        <mask id="mask-6" maskContentUnits="userSpaceOnUse" maskUnits="objectBoundingBox" x="0" y="0" width="4" height="4" fill="white">
            <use xlink:href="#path-5"></use>
        </mask>
    </defs>
    <g id="Page-3" stroke="none" stroke-width="1" fill="none" fill-rule="evenodd">
        <g id="设置界面" transform="translate(-967.000000, -294.000000)">
            <g id="逻辑设置" transform="translate(967.480322, 294.000000)">
                <use id="Rectangle-16-Copy-3" stroke="#8E8E93" mask="url(#mask-2)" stroke-width="2" xlink:href="#path-1"></use>
                <path d="M6,11 L6,2.5 L6,2 L7,2 L7,2.5 L7,11.5 L7,12 L6.75,12 L6.5,12 L3.5,12 L3.5,11 L6,11 Z M3.5,2 L6.5,2 L7,2 L7,1 L6.5,1 L3.5,1 L3.5,2 Z" id="Combined-Shape" fill="#8E8E93"></path>
                <use id="Rectangle-16-Copy-3" stroke="#8E8E93" mask="url(#mask-4)" stroke-width="2" xlink:href="#path-3"></use>
                <use id="Rectangle-16-Copy-3" stroke="#8E8E93" mask="url(#mask-6)" stroke-width="2" xlink:href="#path-5"></use>
                <path d="M6.5,6.5 L8.5,6.5" id="Line" stroke="#8E8E93" stroke-linecap="square" fill="#8E8E93"></path>
            </g>
        </g>
    </g>
</svg>