<?xml version="1.0" encoding="UTF-8"?>
<svg width="11px" height="13px" viewBox="0 0 11 13" version="1.1" xmlns="http://www.w3.org/2000/svg" xmlns:xlink="http://www.w3.org/1999/xlink">
    <defs></defs>
    <g id="Page-3" stroke="none" stroke-width="1" fill="none" fill-rule="evenodd">
        <g id="设置界面" transform="translate(-1314.000000, -293.000000)" fill="#8E8E93">
            <g id="Group-4" transform="translate(1116.000000, 199.000000)">
                <path d="M198.845956,106.187867 C198.845956,106.636469 199.224773,107 199.691911,107 L207.30762,107 C207.776632,107 208.155216,106.636695 208.155216,106.187867 L208.155216,97.8291442 L198.845956,97.8291442 L198.845956,106.187867 L198.845956,106.187867 Z M205.560889,98.6345079 L206.872812,98.6345079 L206.872812,105.394011 C206.872812,105.742875 206.578566,106.024944 206.218022,106.024944 C205.855135,106.024944 205.561124,105.742875 205.561124,105.394011 L205.561124,98.6345079 L205.560889,98.6345079 Z M202.844742,98.6345079 L204.157601,98.6345079 L204.157601,105.394011 C204.157601,105.742875 203.863824,106.024944 203.501171,106.024944 C203.138519,106.024944 202.844742,105.742875 202.844742,105.394011 L202.844742,98.6345079 L202.844742,98.6345079 Z M200.109149,98.6345079 L201.420135,98.6345079 L201.420135,105.394011 C201.420135,105.742875 201.126123,106.024944 200.764642,106.024944 C200.403161,106.024944 200.109384,105.742875 200.109384,105.394011 L200.109384,98.6345079 L200.109149,98.6345079 Z M208.153342,94.8689984 L204.831133,94.8689984 L204.831133,94.4059538 C204.831133,94.4059538 204.816139,94 204.393044,94 L202.578609,94 C202.155982,94 202.170507,94.4059538 202.170507,94.4059538 L202.170507,94.8689984 L198.84619,94.8689984 C198.379286,94.8689984 198,95.2329804 198,95.6815831 L198,97.0172366 L209,97.0172366 L209,95.6815831 C208.999766,95.2329804 208.620714,94.8689984 208.153342,94.8689984 Z" id="删除"></path>
            </g>
        </g>
    </g>
</svg>